<svg xmlns="http://www.w3.org/2000/svg" width="156" height="37" fill="#fff"><path d="M72 17.197v-3.194h12.506v3.194h-4.328v11.407h-3.85V17.197H72zm17.9 5.247v6.16h-3.878v-14.6h3.738v5.732h.112c.244-.7.65-1.243 1.216-1.633s1.248-.592 2.044-.592c.763 0 1.426.176 1.988.528a3.57 3.57 0 0 1 1.314 1.454c.31.617.468 1.326.464 2.125v6.987H93.03v-6.16c.005-.542-.13-.967-.4-1.276s-.65-.463-1.145-.463c-.473 0-.853.155-1.138.463s-.43.734-.436 1.276zm14.094 6.36c-1.73 0-3.1-.497-4.082-1.5-.988-.998-1.482-2.384-1.482-4.156 0-1.13.225-2.12.674-2.966s1.084-1.504 1.904-1.975 1.786-.706 2.9-.706c1.087 0 2.03.226 2.832.677a4.63 4.63 0 0 1 1.868 1.939c.445.836.668 1.837.668 3v.913h-7.026v.17c0 .528.16.965.478 1.312s.773.513 1.35.513c.398 0 .745-.083 1.04-.25s.506-.4.618-.72h3.54c-.183 1.14-.735 2.048-1.658 2.723s-2.127 1.012-3.625 1.012zm-1.743-6.93h3.457c-.01-.47-.178-.853-.506-1.148-.323-.3-.726-.45-1.208-.45a1.81 1.81 0 0 0-1.223.442c-.337.295-.5.68-.52 1.155zm21.037-7.87h3.878v9.64c0 1.112-.257 2.05-.773 2.816-.5.76-1.23 1.338-2.163 1.732s-2.02.585-3.274.585c-1.265 0-2.364-.195-3.296-.585-.927-.394-1.646-.972-2.156-1.732s-.76-1.704-.76-2.816v-9.64h3.906v9.468a1.63 1.63 0 0 0 .611 1.319c.412.337.977.506 1.694.506.73 0 1.302-.17 1.714-.506a1.62 1.62 0 0 0 .618-1.32v-9.468zm13.492 4.563c-.037-.475-.213-.846-.527-1.112s-.78-.4-1.412-.4c-.604 0-1.044.105-1.32.314s-.417.475-.42.798c-.02.347.13.63.442.848.32.22.818.402 1.497.55l1.18.257c1.588.347 2.733.903 3.436 1.668s1.056 1.697 1.06 2.8c-.005 1.44-.525 2.548-1.56 3.322s-2.464 1.155-4.286 1.155c-1.25 0-2.342-.188-3.274-.563s-1.648-.953-2.164-1.732c-.5-.784-.768-1.787-.772-3h3.7c.033.67.26 1.18.682 1.533s1.014.52 1.763.52c.628 0 1.1-.114 1.42-.342s.487-.523.492-.884c-.005-.333-.166-.608-.485-.827s-.878-.423-1.68-.6l-1.433-.314c-1.274-.28-2.28-.75-3.014-1.404s-1.094-1.56-1.1-2.702c-.005-.927.24-1.737.73-2.43s1.182-1.243 2.058-1.633 1.9-.585 3.028-.585c1.162 0 2.166.197 3.014.592s1.5.95 1.96 1.668.698 1.547.703 2.502h-3.738zm8.597 10.038h-4.215l4.75-14.6h5.34l4.75 14.6h-4.215l-.83-2.795h-4.75l-.83 2.795zm1.714-5.76h2.98l-1.433-4.82h-.112l-1.434 4.82zM59.82 4.5v.36l-1.08.96-.534-.018-.406.217.1.434v.307l-.94.453-.164.633V9.05l.738.868-.092.363-.775.307v.487l-.924.49h-.608l-.958.96.148.145.167 1.085-.627 1.413-.24-.037-.055-.4-.596-.032.4.702.48.56-.203.834-.332.533h-.326l.05-.606-.28-.436-.412-.212-.043-.547.13-.688-.2-.127-.462.47.167.344.037.76.295.145.313.58.068.315.04.2-.13.417.48.037.37.16-.092.455.313.2-.018.18-.314.3.553.417v.543l-.425.253.258.452-.183.453-1.457.234v.56l-.423.797-.683.146-.498.83.02.363-.884.922h-.372l-.295.633-.48.253-.008.152-.12 1.876.35.453.15.632.02.018.368.3v.5l.884.742.092.834.33.608.647 1.184v1.795H49.8c-.052-.153-.388-.44-.388-.44l-.514.04v-.616h-.352l-.148-.234v-.344l-.295-.02-.6-.67.075-.38-.295.037-.15-.27.02-.08.13-.554-.094-.94-.313-.108-.94-1.014-.794-.055-.94.543-.37.1-.57-.83-1.75-.127-.023.016-.474.345-.258-.3-.327.284-1.37.006v.58l-.258.344.7.707-.387.234-.94-.434-.5.58-.847-.003-.24-.815-.978-.27v.417l-.2.127-1.347-.344h-.57l-1.826.796v.363l-.736.487-.812.164-.295.434-.405.037-.22.506-.276.073.018 1.05c-.05.173-.044.38-.014.58.07.452.272.884.272.884l-.24.18-.994-.3c-.64-.122-1.036-.46-1.273-.774-.256-.34-.332-.654-.332-.654-.073-.5-.183-.67-.183-.67-.608-.344-1.07-1.6-1.07-1.6-.006-.016-.012-.03-.02-.043-.44-1.038-1.07-1.548-1.07-1.548h-.608l-.183-.2-1.033-.037v.707l-.645.487c-.958-.234-1.637-1.403-1.637-1.403l.033-.64-2.1-2.497-1.955-.145-.164.743-3.486-.417-4-2.37v-.633H5.44l-.1-.983-.04-.428-.48-.18v-.543h-.443l-.068-.4-.374-.097-.702-.85-.92-.108L2 20.444l.043-.126.001-.001.14-.4-.1-.198L2 19.48l.13-.326-.6-1.43-.167-.146v-.216l.258-.27v-.27l-.425-.5.037-1.068-.387-.417.037-.58-.432-.64.044-.858.13-.547L0 11.53l.352-.47.644-1.03-.073-.506.183-.326.074-1.302 1.18-2.1v-.47l.197-.283.17-.242.37-1.157V3.32l.332-.38-.203-.363.023-.6.308-.294-.294-.04.018-.433-.183-.1V.836L3.283.35h.258l.167.434.608.235.645.108v.436l-.276.38-.37.126.074.58h.534l.37-.434v-.5l.148-.18-.295-.38.212-.363.083-.198L5.274.42 5.44 0l2.285.692 2.823.742.967.2.12.026 4.813.76.105.014 1.175.138 5.97.7 5.193.225 2.434-.16v-.47l.5.288v.597l1.033.363.295-.326.774.253.222.363.756.253.6-.183 1.3.2.314-.487.386-.037.516-.543-.036-.2.148-.27 1.4.054.258.164.535.995.534.02.1-.3.462.27.037.472.295.198.014.382.004.145.313.018v.38l.35.253.15.325 1.253-.072 1.888-.038.75.725.6.868-.222.375h-.82l-.414-.464-.13.073.052.4.04.295-.388.688.258 1.05-.6.47-.054.923-.608.198v.3l.682.037.976-1.104.903.054.794-.614.552.018.148-.3-.128-.253-.6.073-.092-.417.6-.56.996-.524.776.035-.112-.344L50.89 7.9l.277-.56.775-.67L54.89 6l.183-.486.46-.127.112-.217.018-.344.26-.1-.02-.38-.22-.453.305-1.493h2.03l.485 1.493.443.02L59 4.4l.805.092z"/></svg>